<svg width="280" height="322" viewBox="0 0 280 322" fill="none" xmlns="http://www.w3.org/2000/svg">
<path fill-rule="evenodd" clip-rule="evenodd" d="M77.793 1.21282C76.5878 2.64917 76.7751 4.79059 78.2115 5.99583L133.347 52.2601C133.482 52.3729 133.622 52.4735 133.768 52.562C133.789 53.1888 133.895 53.794 134.075 54.3665H58C25.9675 54.3665 0 80.334 0 112.367V248.277C0 280.309 25.9675 306.277 58 306.277H85.3776L74.5751 315.341C73.1388 316.546 72.9514 318.688 74.1567 320.124C75.3619 321.561 77.5033 321.748 78.9397 320.543L95.941 306.277H184.005L201.006 320.543C202.442 321.748 204.584 321.561 205.789 320.124C206.994 318.688 206.807 316.546 205.371 315.341L194.568 306.277H221.749C253.782 306.277 279.749 280.309 279.749 248.277V112.367C279.749 80.334 253.782 54.3665 221.749 54.3665H147.033C147.235 53.7235 147.344 53.0392 147.344 52.3295C147.344 52.2341 147.342 52.1392 147.338 52.0448L202.217 5.99583C203.653 4.79059 203.841 2.64917 202.635 1.21282C201.43 -0.223525 199.289 -0.410875 197.852 0.794363L143.643 46.2814C142.716 45.807 141.666 45.5395 140.554 45.5395C139.274 45.5395 138.078 45.8933 137.056 46.5085L82.576 0.794363C81.1397 -0.410875 78.9983 -0.223525 77.793 1.21282Z" fill="url(#paint0_linear_220_60)"/>
<path d="M13.72 204.36V191.28L53.32 138H73.72L34.96 191.28L25.48 188.52H91.6V204.36H13.72ZM58.96 222V204.36L59.56 188.52V172.8H77.92V222H58.96ZM133.414 223.44C126.534 223.44 120.374 221.76 114.934 218.4C109.494 214.96 105.214 210 102.094 203.52C98.9744 197.04 97.4144 189.2 97.4144 180C97.4144 170.8 98.9744 162.96 102.094 156.48C105.214 150 109.494 145.08 114.934 141.72C120.374 138.28 126.534 136.56 133.414 136.56C140.374 136.56 146.534 138.28 151.894 141.72C157.334 145.08 161.614 150 164.734 156.48C167.854 162.96 169.414 170.8 169.414 180C169.414 189.2 167.854 197.04 164.734 203.52C161.614 210 157.334 214.96 151.894 218.4C146.534 221.76 140.374 223.44 133.414 223.44ZM133.414 207C136.694 207 139.534 206.08 141.934 204.24C144.414 202.4 146.334 199.48 147.694 195.48C149.134 191.48 149.854 186.32 149.854 180C149.854 173.68 149.134 168.52 147.694 164.52C146.334 160.52 144.414 157.6 141.934 155.76C139.534 153.92 136.694 153 133.414 153C130.214 153 127.374 153.92 124.894 155.76C122.494 157.6 120.574 160.52 119.134 164.52C117.774 168.52 117.094 173.68 117.094 180C117.094 186.32 117.774 191.48 119.134 195.48C120.574 199.48 122.494 202.4 124.894 204.24C127.374 206.08 130.214 207 133.414 207ZM177.9 204.36V191.28L217.5 138H237.9L199.14 191.28L189.66 188.52H255.78V204.36H177.9ZM223.14 222V204.36L223.74 188.52V172.8H242.1V222H223.14Z" fill="#551515"/>
<defs>
<linearGradient id="paint0_linear_220_60" x1="314.064" y1="160.383" x2="98.5652" y2="-28.3048" gradientUnits="userSpaceOnUse">
<stop stop-color="#E62020"/>
<stop offset="1" stop-color="#FFAFAF"/>
</linearGradient>
</defs>
</svg>
