<svg width="20" height="20" viewBox="0 0 20 20" fill="none" xmlns="http://www.w3.org/2000/svg">
<path d="M9.54225 12C10.6468 12 11.5422 11.1046 11.5422 10C11.5422 8.89543 10.6468 8 9.54225 8C8.43768 8 7.54225 8.89543 7.54225 10C7.54225 11.1046 8.43768 12 9.54225 12Z" fill="white"/>
<path fill-rule="evenodd" clip-rule="evenodd" d="M0 10C1.27425 5.94291 5.06455 3 9.54221 3C14.0198 3 17.8101 5.94288 19.0844 9.99996C17.8101 14.0571 14.0198 17 9.54219 17C5.06456 17 1.27428 14.0571 0 10ZM13.5422 10C13.5422 12.2091 11.7514 14 9.54225 14C7.33311 14 5.54225 12.2091 5.54225 10C5.54225 7.79086 7.33311 6 9.54225 6C11.7514 6 13.5422 7.79086 13.5422 10Z" fill="white"/>
<line x1="18.3848" y1="0.707107" x2="0.707172" y2="18.3848" stroke="white" stroke-width="2"/>
</svg>
