<svg width="119" height="25" viewBox="0 0 119 25" fill="none" xmlns="http://www.w3.org/2000/svg">
<path d="M29.74 20V6H32.8L37.88 14.26L35.72 14.24L40.86 6H43.82V20H40.5V15.76C40.5 14.5333 40.5267 13.4333 40.58 12.46C40.6467 11.4733 40.7533 10.5067 40.9 9.56L41.28 10.6L37.42 16.58H36.06L32.28 10.64L32.66 9.56C32.82 10.4533 32.9267 11.38 32.98 12.34C33.0467 13.2867 33.08 14.4267 33.08 15.76V20H29.74ZM51.1586 20.2C50.0653 20.2 49.0853 19.9667 48.2186 19.5C47.3519 19.02 46.6719 18.3667 46.1786 17.54C45.6853 16.7 45.4386 15.7533 45.4386 14.7C45.4386 13.62 45.6853 12.6667 46.1786 11.84C46.6719 11 47.3519 10.3467 48.2186 9.88C49.0853 9.4 50.0653 9.16 51.1586 9.16C52.2653 9.16 53.2453 9.4 54.0986 9.88C54.9653 10.3467 55.6453 11 56.1386 11.84C56.6319 12.6667 56.8786 13.62 56.8786 14.7C56.8786 15.7533 56.6319 16.7 56.1386 17.54C55.6453 18.3667 54.9653 19.02 54.0986 19.5C53.2453 19.9667 52.2653 20.2 51.1586 20.2ZM51.1586 17.44C51.6386 17.44 52.0586 17.32 52.4186 17.08C52.7919 16.84 53.0853 16.5133 53.2986 16.1C53.5119 15.6867 53.6119 15.22 53.5986 14.7C53.6119 14.1533 53.5119 13.6733 53.2986 13.26C53.0853 12.8333 52.7919 12.5067 52.4186 12.28C52.0586 12.04 51.6386 11.92 51.1586 11.92C50.6919 11.92 50.2719 12.04 49.8986 12.28C49.5253 12.52 49.2319 12.8467 49.0186 13.26C48.8053 13.6733 48.6986 14.1533 48.6986 14.7C48.6986 15.22 48.8053 15.6867 49.0186 16.1C49.2319 16.5133 49.5253 16.84 49.8986 17.08C50.2719 17.32 50.6919 17.44 51.1586 17.44ZM61.1586 20L56.7186 9.38H60.2586L62.8986 17.24L62.1186 17.34L64.8386 9.38H68.3586L63.6786 20H61.1586ZM69.407 20V9.38H72.627V20H69.407ZM71.027 7.28C70.4137 7.28 69.9337 7.14 69.587 6.86C69.2537 6.56667 69.087 6.15333 69.087 5.62C69.087 5.12667 69.2604 4.72667 69.607 4.42C69.9537 4.11333 70.427 3.96 71.027 3.96C71.6137 3.96 72.0737 4.10667 72.407 4.4C72.7537 4.68 72.927 5.08667 72.927 5.62C72.927 6.11333 72.7537 6.51333 72.407 6.82C72.0737 7.12667 71.6137 7.28 71.027 7.28ZM79.9128 20.2C78.7395 20.2 77.7128 19.9667 76.8328 19.5C75.9661 19.0333 75.2928 18.3933 74.8128 17.58C74.3461 16.7533 74.1128 15.8133 74.1128 14.76C74.1128 13.9333 74.2461 13.18 74.5128 12.5C74.7795 11.8067 75.1528 11.2133 75.6328 10.72C76.1261 10.2267 76.6995 9.84667 77.3528 9.58C78.0195 9.3 78.7461 9.16 79.5328 9.16C80.2795 9.16 80.9595 9.29333 81.5728 9.56C82.1861 9.82667 82.7195 10.2 83.1728 10.68C83.6261 11.16 83.9728 11.7267 84.2128 12.38C84.4528 13.0333 84.5661 13.7467 84.5528 14.52L84.5328 15.4H76.0928L75.6128 13.58H81.9128L81.5728 13.94V13.54C81.5461 13.2067 81.4395 12.92 81.2528 12.68C81.0795 12.4267 80.8461 12.2267 80.5528 12.08C80.2728 11.9333 79.9528 11.86 79.5928 11.86C79.0595 11.86 78.6061 11.9667 78.2328 12.18C77.8728 12.38 77.5995 12.6733 77.4128 13.06C77.2261 13.4467 77.1328 13.9267 77.1328 14.5C77.1328 15.0733 77.2528 15.58 77.4928 16.02C77.7461 16.46 78.1061 16.8 78.5728 17.04C79.0528 17.28 79.6195 17.4 80.2728 17.4C80.7128 17.4 81.1128 17.3333 81.4728 17.2C81.8328 17.0667 82.2195 16.84 82.6328 16.52L84.1328 18.64C83.7195 18.9867 83.2795 19.28 82.8128 19.52C82.3461 19.7467 81.8661 19.9133 81.3728 20.02C80.8928 20.14 80.4061 20.2 79.9128 20.2ZM86.1111 20V6H89.5311V20H86.1111ZM87.7111 14.64V11.78H94.9911V14.64H87.7111ZM87.7111 9.02V6H95.7911V9.02H87.7111ZM97.3544 20V5.2H100.574V20H97.3544ZM102.809 20V9.38H106.029V20H102.809ZM104.429 7.28C103.815 7.28 103.335 7.14 102.989 6.86C102.655 6.56667 102.489 6.15333 102.489 5.62C102.489 5.12667 102.662 4.72667 103.009 4.42C103.355 4.11333 103.829 3.96 104.429 3.96C105.015 3.96 105.475 4.10667 105.809 4.4C106.155 4.68 106.329 5.08667 106.329 5.62C106.329 6.11333 106.155 6.51333 105.809 6.82C105.475 7.12667 105.015 7.28 104.429 7.28ZM114.794 20L112.534 16.58L111.494 15.14L107.294 9.38H111.154L113.354 12.66L114.454 14.2L118.614 20H114.794ZM107.194 20L111.474 14.06L113.194 16.12L110.994 20H107.194ZM114.254 15.38L112.534 13.32L114.634 9.38H118.414L114.254 15.38Z" fill="white"/>
<circle cx="12" cy="13" r="12" fill="#E62020"/>
<circle cx="12" cy="13" r="8" fill="white"/>
<circle cx="12" cy="13" r="4" fill="#E62020"/>
</svg>
