<svg width="20" height="14" viewBox="0 0 20 14" fill="none" xmlns="http://www.w3.org/2000/svg">
<path d="M9.54225 9C10.6468 9 11.5422 8.10457 11.5422 7C11.5422 5.89543 10.6468 5 9.54225 5C8.43768 5 7.54225 5.89543 7.54225 7C7.54225 8.10457 8.43768 9 9.54225 9Z" fill="white"/>
<path fill-rule="evenodd" clip-rule="evenodd" d="M0 7.00004C1.27425 2.94291 5.06455 0 9.54221 0C14.0198 0 17.8101 2.94288 19.0844 6.99996C17.8101 11.0571 14.0198 14 9.54219 14C5.06456 14 1.27428 11.0571 0 7.00004ZM13.5422 7C13.5422 9.20914 11.7514 11 9.54225 11C7.33311 11 5.54225 9.20914 5.54225 7C5.54225 4.79086 7.33311 3 9.54225 3C11.7514 3 13.5422 4.79086 13.5422 7Z" fill="white"/>
</svg>
